<?xml version="1.0" encoding="UTF-8"?>
<svg version="1.1" viewBox="0 0 1280 1280" fill="rgb(20,0,136)" xmlns="http://www.w3.org/2000/svg">
<path transform="translate(739,148)" d="m0 0h46l28 3 29 6 21 6 24 9 24 11 27 16 18 13 11 9 14 12 20 20 9 11 12 15 8 12 10 16 14 27 8 19 9 27 6 23 20 6 18 7 20 9 22 13 18 13 13 11 8 7 16 16 9 11 10 13 12 19 11 20 8 19 8 24 6 25 4 25v48l-6 33-7 26-9 24-11 23-13 21-14 19-10 11-7 8-9 9-8 7-15 12-13 9-15 9-21 11-20 8-15 5-24 6-28 4-13 1h-814l-20-2-20-4-17-5-21-8-23-12-12-8-13-10-14-12-10-10-9-11-8-10-11-17-10-19-8-20-6-21-5-24-1-6v-47l6-28 6-20 6-16 8-17 12-19 12-16 18-20 10-9 20-15 15-9 16-8 14-6 18-6 23-5 23-3 9-24 9-21 10-19 14-21 7-9 14-17 17-17 11-9 17-13 21-13 15-8 24-10 26-8 25-5 15-2 32-1 19 1 7-9 10-14 13-16 9-10 19-19 11-9 17-13 15-10 22-13 26-12 25-9 26-7 28-5zm9 98-24 3-22 5-21 7-25 12-13 8-14 10-13 11-10 9-13 14-12 16-11 18-11 20-8 16-5 9v2l-25-5-32-6-11-1h-27l-24 4-17 5-18 8-18 10-12 9-10 9-8 7-12 14-10 15-8 14-9 22-6 23-9 62v3l-57-8h-27l-19 4-16 6-15 8-12 9-10 9-7 7-8 11-8 14-6 14-5 19-1 6v32l5 22 8 19 8 13 8 10 6 7h2v2l11 9 14 9 16 8 17 5 20 3h798l23-2 23-5 19-7 16-8 15-9 16-13 18-18 11-15 11-19 7-17 5-16 4-19 1-8v-33l-3-19-6-21-6-15-10-19-10-14-12-14-8-8-11-9-13-9-16-9-13-6-18-6-25-5-40-6-1-1-8-58-5-22-8-24-11-23-11-18-10-13-12-14-13-13-11-9-17-12-21-12-20-9-22-7-25-5-20-2z" />
</svg>
