<?xml version="1.0" encoding="UTF-8"?>
<svg version="1.1" viewBox="0 0 1101 1351" fill="rgb(20,0,136)" xmlns="http://www.w3.org/2000/svg">
<path transform="translate(1,1)" d="m0 0h62l20 3 18 5 18 8 14 8 12 9 10 9 11 11 11 15 9 16 6 14 5 16 3 15 1 9 1 919 3 12 6 11 4 4v2l4 2 9 6 11 4 5 1h614l12-3 11-6 4-4h2l2-4 6-9 4-11 1-5 1-57h-200v-100h200v-100h-200v-100h200v-100h-200v-100h200v-100h-600v-100h600v-162l3-20 5-18 8-18 8-14 9-12 9-10 11-11 15-11 16-9 19-8 20-5 15-2h62v100l-57 1-12 3-11 6-4 4h-2l-2 4-6 9-4 11-1 5-1 919-3 20-5 17-6 15-8 15-10 14-11 12-10 10-15 11-16 9-14 6-16 5-15 3-9 1-162 1-149 149-4-2-147-147-162-1-20-3-18-5-18-8-14-8-12-9-10-9-11-11-11-15-9-16-8-19-5-20-2-15-1-919-3-12-6-11-4-4v-2l-4-2-9-6-11-4-5-1-57-1z" />
</svg>
