<?xml version="1.0" encoding="utf-8"?>
<!-- Svg Vector Icons : http://www.onlinewebfonts.com/icon -->
<!DOCTYPE svg PUBLIC "-//W3C//DTD SVG 1.1//EN" "http://www.w3.org/Graphics/SVG/1.1/DTD/svg11.dtd">
<svg version="1.1" xmlns="http://www.w3.org/2000/svg" xmlns:xlink="http://www.w3.org/1999/xlink" x="0px" y="0px" viewBox="0 0 256 256" fill="rgb(20,0,136)" enable-background="new 0 0 256 256" xml:space="preserve">
<metadata> Svg Vector Icons : http://www.onlinewebfonts.com/icon </metadata>
<g><g><g><path d="M27.2,52.4C22,53.9,10,58.5,10,59.1c0,0.4,3.9,9,4.2,9.3c0.2,0.2,2.3-0.6,4.8-1.7c7.6-3.4,14.7-5,21.9-5c8.4,0,13.4,1.3,25.5,6.6c15.6,6.9,20,8.2,29.8,8.6c12.6,0.5,16.9-0.5,38-9.7c9.8-4.2,15.3-5.6,23-5.6c8.3,0,13.3,1.3,25.9,6.9c15.1,6.7,19.4,7.9,29.8,8.3c10,0.5,15.3-0.5,25.2-4.4c8.7-3.4,8.3-2.9,6-8.1c-1.1-2.5-2.1-4.7-2.2-4.8c-0.2-0.2-2.3,0.6-4.8,1.7c-7.6,3.4-14.7,5-21.9,5c-8.6,0-13.2-1.2-27.3-7.4c-14.7-6.4-20.8-8-30.5-8c-9.7,0-17.4,1.9-29.7,7.3C112.5,65,110,65.7,101,66.1c-10,0.5-14.2-0.5-28.2-6.7c-15.6-6.9-19.2-7.9-30.4-8.2C34.6,51,31.7,51.3,27.2,52.4z"/><path d="M29.7,94.4c-5.2,1.2-16.4,5.3-18.4,6.9c-1.3,1-1.3,1.2,0.7,5.2c1.2,2.3,2.2,4.3,2.4,4.5c0.1,0.2,2.9-0.8,6-2.2c16.7-6.9,26.8-6.3,47.9,3c24.7,11,37,11,60.9,0.2c12.3-5.6,17.8-7.2,25.5-7.7c8.5-0.5,14.3,0.7,24.4,5.2c21,9.2,25,10.3,36.6,10.3c6.8-0.1,9.8-0.5,15-2c6.2-1.8,15.4-5.6,15.4-6.2c0-0.2-0.9-2.3-2.1-4.9l-2.2-4.6l-7.3,2.9c-16.6,6.6-25.9,5.9-47-3.5c-11.9-5.3-18.6-7.2-27.1-7.9c-10.9-0.8-19.1,1.2-34.7,8.3c-21.8,9.9-30.3,9.9-52.4,0.4c-6.3-2.7-13.8-5.7-16.7-6.6C49.8,93.5,36.3,92.9,29.7,94.4z"/><path d="M32.8,136.6c-6.3,0.9-22.8,6.7-22.8,7.9c0,0.2,0.9,2.3,2.2,4.9l2.1,4.6l7.3-2.9c15.7-6.2,26.8-5.7,43.9,2.2c25.5,11.7,38.4,12.4,59.5,3.2c4.9-2.1,12.3-5.1,16.6-6.6c6.9-2.5,8.5-2.8,15.4-2.8c9.2,0,12.6,0.9,26.8,7.2c13.5,6,19.6,7.8,27.9,8.3c8.3,0.5,16.7-0.9,25.5-4.3c9.4-3.6,9.3-3.5,6.8-8.8c-1.2-2.4-2.4-4.4-2.7-4.4s-3,1-5.9,2.3c-16.2,6.9-26.5,6.2-47.4-3c-14.7-6.6-20.6-8-30.6-8c-10.5-0.1-16,1.4-30.3,7.6c-22.5,9.9-32.2,10.4-49.9,2.6c-12.3-5.4-18-7.6-22.7-8.8C48.6,136.2,38.5,135.7,32.8,136.6z"/><path d="M27.2,180.4c-5.1,1.4-17.2,6.1-17.2,6.6c0,1.5,4.3,9.6,4.9,9.3c15.6-6.3,18.3-6.9,28.5-6.5c8.5,0.5,11.7,1.5,29.1,9.1c11.8,5.1,18,6.4,28.8,5.9c9.6-0.4,16.4-2.2,27.9-7.6c12.6-5.9,16.8-7.1,25.7-7.5c10-0.4,14.3,0.6,28.2,6.8c14.8,6.6,19.3,7.9,29.4,8.3c10,0.5,16.4-0.7,26.4-4.8c3.5-1.5,6.6-2.8,6.8-3c0.2-0.2-3.3-8.9-3.9-9.6c-0.2-0.2-2.8,0.8-5.9,2.1c-8,3.5-13.7,4.7-20.8,4.7c-8.3,0-13.5-1.4-27.1-7.4c-14.5-6.3-21-8-31.2-8c-9.9,0-16.4,1.6-29.4,7.3c-14.8,6.6-17.6,7.4-26,7.9c-9.6,0.5-15.3-0.8-28.8-6.7c-15.4-6.9-19.2-7.9-30.4-8.2C34.6,179,31.7,179.3,27.2,180.4z"/></g></g></g>
</svg>