<?xml version="1.0" encoding="UTF-8"?>
<svg version="1.1" viewBox="0 0 1024 948" fill="rgb(20,0,136)" xmlns="http://www.w3.org/2000/svg">
<path transform="translate(45,543)" d="m0 0h767l23 1 25 3 21 5 16 6 21 10 19 12 12 9 10 9 15 15 11 14 10 15 10 19 9 24 6 21 4 23v39l-6 27-9 27-10 21-12 19-10 13-12 13-8 8-8 7-18 13-24 13-20 8-23 7-22 4h-39l-31-6-20-6-23-10-15-8-15-11-11-9-10-9-10-11-11-14-10-15-12-23-8-22-5-20-3-23v-45l4-11 6-8 10-7 9-3h12l10 3 10 7 7 10 3 9 2 45 3 17 7 21 9 16 10 14 11 12 14 11 10 7 15 7 16 5 13 3 9 1h27l16-3 16-5 16-7 16-10 11-10 12-12 9-13 7-12 8-22 3-14 1-10v-22l-2-15-4-15-5-13-9-17-10-13-9-10-10-9-15-10-19-9-13-4-17-3-12-1-800-1-11-6-7-6-8-13v-21l9-14 9-7 10-4z" />
<path transform="translate(805,68)" d="m0 0h30l24 3 21 5 24 9 19 10 15 10 12 9 10 9 14 14 11 14 10 15 9 17 9 23 7 24 4 23v40l-7 29-9 27-8 16-9 16-12 16-9 11h-2l-2 4-8 8-11 9-14 10-19 11-15 7-27 9-20 4-27 2h-796l-10-4-8-6-7-8-4-7v-21l8-12 7-6 10-5 3-1 773-1 29-1 19-3 17-5 16-7 15-9 14-11 9-9 11-15 6-10 8-20 4-15 2-15v-22l-2-15-6-21-9-19-12-17-12-13-11-9-18-11-19-8-25-5-10-1h-13l-17 2-17 4-16 7-16 9-14 11-12 12-10 14-10 18-6 16-4 18-1 16-1 35-4 10-7 9-9 6-9 3h-14l-10-4-10-9-5-8-3-9v-44l2-18 5-23 6-18 9-20 10-17 13-18 14-15 7-7 11-9 16-12 15-9 21-9 21-7 25-5z" />
<path transform="translate(369,3)" d="m0 0h29l23 4 18 5 21 9 17 10 11 9 12 11 12 13 12 18 7 12 8 20 5 19 3 18v34l-5 25-7 20-8 16-9 14-10 13-20 20-14 10-14 8-15 7-18 6-20 4-21 2h-358l-10-4-8-6-7-10-3-6v-20l7-12 9-8 10-5 8-1 362-1 17-4 16-8 13-8 7-6 9-11 9-15 6-18 2-12v-15l-3-17-6-16-7-13-9-11-10-9-14-9-13-6-14-3-20-1-21 3-15 6-13 8-11 9-9 10-9 15-6 16-3 14-1 35-4 10-7 9-9 6-7 3-5 1h-8l-10-3-9-6-7-8-5-12v-42l4-22 8-24 8-16 10-16 10-13 16-16 13-10 16-10 18-8 15-5 24-5z" />
</svg>
